<svg id="Layer_1" data-name="Layer 1" xmlns="http://www.w3.org/2000/svg" viewBox="0 0 50 50"><defs><style>.cls-1{fill:#ff0080;}.cls-2,.cls-3{opacity:0.39;}</style></defs><title>logoPi</title><path class="cls-1" d="M50.09,25a24.49,24.49,0,0,1-.3,3.85,23.31,23.31,0,0,1-.48,2.38c-.18.67-.38,1.34-.61,2-.08.23-.16.46-.25.68s-.25.63-.38.94l-.3.68c-.15.31-.3.62-.46.93l-.36.68c-.18.32-.37.63-.56.94l-.43.68a25,25,0,0,1-41.71,0c-.15-.22-.3-.45-.43-.68l0,0c-.19-.29-.36-.59-.53-.89l-.36-.68c-.14-.27-.27-.54-.4-.81l-.06-.12-.3-.68c-.13-.31-.26-.62-.38-.94s-.17-.45-.25-.68A24.84,24.84,0,0,1,.12,25c0-.39,0-.79,0-1.18a20.84,20.84,0,0,1,.23-2.38A25,25,0,0,1,18.84.81a23.36,23.36,0,0,1,2.38-.5A24.78,24.78,0,0,1,25.1,0a24.1,24.1,0,0,1,4.19.36,21.16,21.16,0,0,1,2.39.52A25,25,0,0,1,48.47,16.16a21.31,21.31,0,0,1,.77,2.38A24.61,24.61,0,0,1,50.09,25Z"/><path class="cls-2" d="M31.68.89V4a1.2,1.2,0,1,1-2.39,0V.37A21.16,21.16,0,0,1,31.68.89Z"/><path class="cls-2" d="M10.55,22.63a1.19,1.19,0,0,1-1.19,1.19H.15a20.84,20.84,0,0,1,.23-2.38h9A1.19,1.19,0,0,1,10.55,22.63Z"/><g class="cls-3"><path d="M27.81,14.63h7.94A2.38,2.38,0,0,1,38.13,17v0a0,0,0,0,1,0,0H25.43a0,0,0,0,1,0,0v0A2.38,2.38,0,0,1,27.81,14.63Z" transform="translate(47.6 -15.95) rotate(90)"/><path d="M30.38,19.8h1.4A1.19,1.19,0,0,1,33,21v0a1.19,1.19,0,0,1-1.19,1.19H28a0,0,0,0,1,0,0v0A2.38,2.38,0,0,1,30.38,19.8Z" transform="translate(60.97 41.97) rotate(180)"/><path d="M20.65,9.47H31.78A1.19,1.19,0,0,1,33,10.66v0a1.19,1.19,0,0,1-1.19,1.19H23a2.38,2.38,0,0,1-2.38-2.38v0A0,0,0,0,1,20.65,9.47Z" transform="translate(53.62 21.32) rotate(180)"/></g><g class="cls-3"><path d="M49.24,18.54H43.85a2.39,2.39,0,0,1-2.38-2.38h7A21.31,21.31,0,0,1,49.24,18.54Z"/><path d="M40.1,13.6h6.31a0,0,0,0,1,0,0v0A2.38,2.38,0,0,1,44,16H40.1a1.19,1.19,0,0,1-1.19-1.19v0A1.19,1.19,0,0,1,40.1,13.6Z" transform="translate(57.46 -27.87) rotate(90)"/></g><g class="cls-3"><path d="M49.79,28.85a23.31,23.31,0,0,1-.48,2.38H32.09a2.38,2.38,0,0,1,2.38-2.38Z"/><path d="M34.47,28.85V48.17a24.81,24.81,0,0,1-2.38.83V31.23A2.38,2.38,0,0,1,34.47,28.85Z"/></g><g class="cls-3"><path d="M20.91,35.64A2.38,2.38,0,0,1,18.53,38H3.79c-.19-.29-.36-.59-.53-.89l-.36-.68c-.14-.27-.27-.54-.4-.81Z"/><path d="M17.27,33.19H21a2.38,2.38,0,0,1,2.38,2.38v0a0,0,0,0,1,0,0H17.27a1.19,1.19,0,0,1-1.19-1.19v0a1.19,1.19,0,0,1,1.19-1.19Z" transform="translate(54.1 14.66) rotate(90)"/></g><g class="cls-3"><path d="M21.22.31v4.9a2.38,2.38,0,0,1-2.38-2.39v-2A23.36,23.36,0,0,1,21.22.31Z"/><path d="M18.84,2.82h6.71A1.19,1.19,0,0,1,26.74,4V4a1.19,1.19,0,0,1-1.19,1.19H21.22a2.38,2.38,0,0,1-2.38-2.38v0A0,0,0,0,1,18.84,2.82Z"/></g><rect class="cls-2" x="12.55" y="14.7" width="12.57" height="12.57" rx="2.12"/></svg>